<?xml version="1.0" encoding="us-ascii" standalone="no"?><svg xmlns="http://www.w3.org/2000/svg" xmlns:xlink="http://www.w3.org/1999/xlink" contentStyleType="text/css" height="1769px" preserveAspectRatio="none" style="width:1011px;height:1769px;background:#FFFFFF;" version="1.1" viewBox="0 0 1011 1769" width="1011px" zoomAndPan="magnify"><defs/><g><text fill="#000000" font-family="Verdana" font-size="22" font-weight="bold" lengthAdjust="spacing" textLength="762" x="123.375" y="37.1182">ECL Expression Generation Workflow for Decision Dashboard</text><ellipse cx="481.5" cy="62.7373" fill="#FFFFFF" rx="10" ry="10" style="stroke:#000000;stroke-width:1.0;"/><rect fill="#E3F2FD" height="32.1533" rx="12.5" ry="12.5" style="stroke:#1976D2;stroke-width:1.0;" width="214" x="374.5" y="92.7373"/><text fill="#000000" font-family="Verdana" font-size="10" lengthAdjust="spacing" textLength="194" x="384.5" y="112.791">User provides Primary LOINC Code</text><rect fill="#E3F2FD" height="32.1533" rx="12.5" ry="12.5" style="stroke:#1976D2;stroke-width:1.0;" width="196" x="383.5" y="144.8906"/><text fill="#000000" font-family="Verdana" font-size="10" lengthAdjust="spacing" textLength="176" x="393.5" y="164.9443">Load LOINC-SNOMED mappings</text><rect fill="#E3F2FD" height="32.1533" rx="12.5" ry="12.5" style="stroke:#1976D2;stroke-width:1.0;" width="182" x="390.5" y="197.0439"/><text fill="#000000" font-family="Verdana" font-size="10" lengthAdjust="spacing" textLength="162" x="400.5" y="217.0977">Retrieve SNOMED Concept ID</text><path d="M583.5,239.1973 L583.5,264.5039 L563.5,268.5039 L583.5,272.5039 L583.5,297.8105 A0,0 0 0 0 583.5,297.8105 L755.5,297.8105 A0,0 0 0 0 755.5,297.8105 L755.5,249.1973 L745.5,239.1973 L583.5,239.1973 A0,0 0 0 0 583.5,239.1973 " fill="#FFFFFF" style="stroke:#000000;stroke-width:1.0;"/><path d="M745.5,239.1973 L745.5,249.1973 L755.5,249.1973 L745.5,239.1973 " fill="#FFFFFF" style="stroke:#000000;stroke-width:1.0;"/><text fill="#000000" font-family="Verdana" font-size="10" font-weight="bold" lengthAdjust="spacing" textLength="98" x="589.5" y="254.251">3 Key Attributes:</text><text fill="#000000" font-family="Verdana" font-size="10" lengthAdjust="spacing" textLength="151" x="589.5" y="266.4043">&#8226; Component (246093002)</text><text fill="#000000" font-family="Verdana" font-size="10" lengthAdjust="spacing" textLength="132" x="589.5" y="278.5576">&#8226; Property (370130000)</text><text fill="#000000" font-family="Verdana" font-size="10" lengthAdjust="spacing" textLength="141" x="589.5" y="290.7109">&#8226; Direct site (704327008)</text><rect fill="#E3F2FD" height="32.1533" rx="12.5" ry="12.5" style="stroke:#1976D2;stroke-width:1.0;" width="164" x="399.5" y="252.4272"/><text fill="#000000" font-family="Verdana" font-size="10" lengthAdjust="spacing" textLength="144" x="409.5" y="272.481">Extract SNOMED Attributes</text><rect fill="#E3F2FD" height="32.1533" rx="12.5" ry="12.5" style="stroke:#1976D2;stroke-width:1.0;" width="168" x="397.5" y="317.8105"/><text fill="#000000" font-family="Verdana" font-size="10" lengthAdjust="spacing" textLength="148" x="407.5" y="337.8643">Generate ECL Experiments</text><rect fill="#FFFFFF" height="78.46" style="stroke:#000000;stroke-width:1.0;" width="390" x="385" y="359.9639"/><path d="M598,359.9639 L598,365.1172 L588,375.1172 L385,375.1172 " fill="none" style="stroke:#000000;stroke-width:1.0;"/><text fill="#000000" font-family="Verdana" font-size="10" lengthAdjust="spacing" textLength="203" x="388" y="371.0176">Exp 0: Pre-coordinated Descendants</text><path d="M588,392.1172 L588,405.2705 L568,409.2705 L588,413.2705 L588,426.4238 A0,0 0 0 0 588,426.4238 L765,426.4238 A0,0 0 0 0 765,426.4238 L765,402.1172 L755,392.1172 L588,392.1172 A0,0 0 0 0 588,392.1172 " fill="#FFFFFF" style="stroke:#000000;stroke-width:1.0;"/><path d="M755,392.1172 L755,402.1172 L765,402.1172 L755,392.1172 " fill="#FFFFFF" style="stroke:#000000;stroke-width:1.0;"/><text fill="#000000" font-family="Verdana" font-size="10" lengthAdjust="spacing" textLength="147" x="594" y="407.1709">Baseline - all descendants</text><text fill="#000000" font-family="Verdana" font-size="10" lengthAdjust="spacing" textLength="156" x="594" y="419.3242">in pre-coordinated hierarchy</text><rect fill="#E3F2FD" height="32.1533" rx="12.5" ry="12.5" style="stroke:#1976D2;stroke-width:1.0;" width="173" x="395" y="393.1938"/><text fill="#000000" font-family="Verdana" font-size="10" lengthAdjust="spacing" textLength="153" x="405" y="413.2476">&lt;&lt; [SNOMED_CONCEPT_ID]</text><polygon fill="#E3F2FD" points="427.5,458.4238,535.5,458.4238,547.5,470.4238,535.5,482.4238,427.5,482.4238,415.5,470.4238,427.5,458.4238" style="stroke:#1976D2;stroke-width:1.0;"/><text fill="#000000" font-family="Verdana" font-size="10" lengthAdjust="spacing" textLength="108" x="427.5" y="474.4009">Component exists?</text><text fill="#000000" font-family="Verdana" font-size="10" lengthAdjust="spacing" textLength="19" x="396.5" y="468.3242">yes</text><text fill="#000000" font-family="Verdana" font-size="10" lengthAdjust="spacing" textLength="14" x="547.5" y="468.3242">no</text><rect fill="#FFFFFF" height="88.46" style="stroke:#000000;stroke-width:1.0;" width="374" x="173.75" y="492.4238"/><path d="M322.75,492.4238 L322.75,497.5771 L312.75,507.5771 L173.75,507.5771 " fill="none" style="stroke:#000000;stroke-width:1.0;"/><text fill="#000000" font-family="Verdana" font-size="10" lengthAdjust="spacing" textLength="139" x="176.75" y="503.4775">Exp 1: Fixed Component</text><path d="M383.75,529.5771 L383.75,542.7305 L363.75,546.7305 L383.75,550.7305 L383.75,563.8838 A0,0 0 0 0 383.75,563.8838 L537.75,563.8838 A0,0 0 0 0 537.75,563.8838 L537.75,539.5771 L527.75,529.5771 L383.75,529.5771 A0,0 0 0 0 383.75,529.5771 " fill="#FFFFFF" style="stroke:#000000;stroke-width:1.0;"/><path d="M527.75,529.5771 L527.75,539.5771 L537.75,539.5771 L527.75,529.5771 " fill="#FFFFFF" style="stroke:#000000;stroke-width:1.0;"/><text fill="#000000" font-family="Verdana" font-size="10" lengthAdjust="spacing" textLength="133" x="389.75" y="544.6309">Exact component match</text><text fill="#000000" font-family="Verdana" font-size="10" lengthAdjust="spacing" textLength="100" x="389.75" y="556.7842">(NO descendants)</text><rect fill="#E3F2FD" height="44.3066" rx="12.5" ry="12.5" style="stroke:#1976D2;stroke-width:1.0;" width="180" x="183.75" y="524.5771"/><text fill="#000000" font-family="Verdana" font-size="10" lengthAdjust="spacing" textLength="107" x="193.75" y="544.6309">Observable entity :</text><text fill="#000000" font-family="Verdana" font-size="10" lengthAdjust="spacing" textLength="160" x="193.75" y="556.7842">Component = [COMPONENT]</text><rect fill="#FFFFFF" height="88.46" style="stroke:#000000;stroke-width:1.0;" width="412" x="163.75" y="590.8838"/><path d="M353.75,590.8838 L353.75,596.0371 L343.75,606.0371 L163.75,606.0371 " fill="none" style="stroke:#000000;stroke-width:1.0;"/><text fill="#000000" font-family="Verdana" font-size="10" lengthAdjust="spacing" textLength="180" x="166.75" y="601.9375">Exp 2: Component Descendants</text><path d="M393.75,628.0371 L393.75,641.1904 L373.75,645.1904 L393.75,649.1904 L393.75,662.3438 A0,0 0 0 0 393.75,662.3438 L565.75,662.3438 A0,0 0 0 0 565.75,662.3438 L565.75,638.0371 L555.75,628.0371 L393.75,628.0371 A0,0 0 0 0 393.75,628.0371 " fill="#FFFFFF" style="stroke:#000000;stroke-width:1.0;"/><path d="M555.75,628.0371 L555.75,638.0371 L565.75,638.0371 L555.75,628.0371 " fill="#FFFFFF" style="stroke:#000000;stroke-width:1.0;"/><text fill="#000000" font-family="Verdana" font-size="10" lengthAdjust="spacing" textLength="151" x="399.75" y="643.0908">Component + descendants</text><text fill="#000000" font-family="Verdana" font-size="10" lengthAdjust="spacing" textLength="121" x="399.75" y="655.2441">(captures derivatives)</text><rect fill="#E3F2FD" height="44.3066" rx="12.5" ry="12.5" style="stroke:#1976D2;stroke-width:1.0;" width="200" x="173.75" y="623.0371"/><text fill="#000000" font-family="Verdana" font-size="10" lengthAdjust="spacing" textLength="107" x="183.75" y="643.0908">Observable entity :</text><text fill="#000000" font-family="Verdana" font-size="10" lengthAdjust="spacing" textLength="180" x="183.75" y="655.2441">Component = &lt;&lt; [COMPONENT]</text><polygon fill="#E3F2FD" points="229.25,699.3438,318.25,699.3438,330.25,711.3438,318.25,723.3438,229.25,723.3438,217.25,711.3438,229.25,699.3438" style="stroke:#1976D2;stroke-width:1.0;"/><text fill="#000000" font-family="Verdana" font-size="10" lengthAdjust="spacing" textLength="89" x="229.25" y="715.3208">Property exists?</text><text fill="#000000" font-family="Verdana" font-size="10" lengthAdjust="spacing" textLength="19" x="198.25" y="709.2441">yes</text><text fill="#000000" font-family="Verdana" font-size="10" lengthAdjust="spacing" textLength="14" x="330.25" y="709.2441">no</text><rect fill="#FFFFFF" height="100.6133" style="stroke:#000000;stroke-width:1.0;" width="204" x="91" y="733.3438"/><path d="M268,733.3438 L268,738.4971 L258,748.4971 L91,748.4971 " fill="none" style="stroke:#000000;stroke-width:1.0;"/><text fill="#000000" font-family="Verdana" font-size="10" lengthAdjust="spacing" textLength="167" x="94" y="744.3975">Exp 3: Component + Property</text><rect fill="#E3F2FD" height="56.46" rx="12.5" ry="12.5" style="stroke:#1976D2;stroke-width:1.0;" width="184" x="101" y="765.4971"/><text fill="#000000" font-family="Verdana" font-size="10" lengthAdjust="spacing" textLength="107" x="111" y="785.5508">Observable entity :</text><text fill="#000000" font-family="Verdana" font-size="10" lengthAdjust="spacing" textLength="164" x="111" y="797.7041">Component = [COMPONENT],</text><text fill="#000000" font-family="Verdana" font-size="10" lengthAdjust="spacing" textLength="131" x="111" y="809.8574">Property = [PROPERTY]</text><rect fill="#E3F2FD" height="32.1533" rx="12.5" ry="12.5" style="stroke:#1976D2;stroke-width:1.0;" width="79" x="315" y="733.3438"/><text fill="#000000" font-family="Verdana" font-size="10" lengthAdjust="spacing" textLength="59" x="325" y="753.3975">Skip Exp 3</text><polygon fill="#E3F2FD" points="273.75,839.957,285.75,851.957,273.75,863.957,261.75,851.957,273.75,839.957" style="stroke:#1976D2;stroke-width:1.0;"/><polygon fill="#E3F2FD" points="224.75,883.957,322.75,883.957,334.75,895.957,322.75,907.957,224.75,907.957,212.75,895.957,224.75,883.957" style="stroke:#1976D2;stroke-width:1.0;"/><text fill="#000000" font-family="Verdana" font-size="10" lengthAdjust="spacing" textLength="98" x="224.75" y="899.9341">Direct site exists?</text><text fill="#000000" font-family="Verdana" font-size="10" lengthAdjust="spacing" textLength="19" x="193.75" y="893.8574">yes</text><text fill="#000000" font-family="Verdana" font-size="10" lengthAdjust="spacing" textLength="14" x="334.75" y="893.8574">no</text><rect fill="#FFFFFF" height="100.6133" style="stroke:#000000;stroke-width:1.0;" width="204" x="91" y="917.957"/><path d="M263,917.957 L263,923.1104 L253,933.1104 L91,933.1104 " fill="none" style="stroke:#000000;stroke-width:1.0;"/><text fill="#000000" font-family="Verdana" font-size="10" lengthAdjust="spacing" textLength="162" x="94" y="929.0107">Exp 4: Component + System</text><rect fill="#E3F2FD" height="56.46" rx="12.5" ry="12.5" style="stroke:#1976D2;stroke-width:1.0;" width="184" x="101" y="950.1104"/><text fill="#000000" font-family="Verdana" font-size="10" lengthAdjust="spacing" textLength="107" x="111" y="970.1641">Observable entity :</text><text fill="#000000" font-family="Verdana" font-size="10" lengthAdjust="spacing" textLength="164" x="111" y="982.3174">Component = [COMPONENT],</text><text fill="#000000" font-family="Verdana" font-size="10" lengthAdjust="spacing" textLength="126" x="111" y="994.4707">Direct site = &lt;&lt; [SITE]</text><rect fill="#E3F2FD" height="32.1533" rx="12.5" ry="12.5" style="stroke:#1976D2;stroke-width:1.0;" width="79" x="315" y="917.957"/><text fill="#000000" font-family="Verdana" font-size="10" lengthAdjust="spacing" textLength="59" x="325" y="938.0107">Skip Exp 4</text><polygon fill="#E3F2FD" points="273.75,1024.5703,285.75,1036.5703,273.75,1048.5703,261.75,1036.5703,273.75,1024.5703" style="stroke:#1976D2;stroke-width:1.0;"/><polygon fill="#E3F2FD" points="230.25,1068.5703,317.25,1068.5703,329.25,1080.5703,317.25,1092.5703,230.25,1092.5703,218.25,1080.5703,230.25,1068.5703" style="stroke:#1976D2;stroke-width:1.0;"/><text fill="#000000" font-family="Verdana" font-size="10" lengthAdjust="spacing" textLength="87" x="230.25" y="1084.5474">All 3 attributes?</text><text fill="#000000" font-family="Verdana" font-size="10" lengthAdjust="spacing" textLength="19" x="199.25" y="1078.4707">yes</text><text fill="#000000" font-family="Verdana" font-size="10" lengthAdjust="spacing" textLength="14" x="329.25" y="1078.4707">no</text><rect fill="#FFFFFF" height="112.7666" style="stroke:#000000;stroke-width:1.0;" width="374" x="6" y="1102.5703"/><path d="M130,1102.5703 L130,1107.7236 L120,1117.7236 L6,1117.7236 " fill="none" style="stroke:#000000;stroke-width:1.0;"/><text fill="#000000" font-family="Verdana" font-size="10" lengthAdjust="spacing" textLength="114" x="9" y="1113.624">Exp 5: Refined Base</text><path d="M220,1151.877 L220,1165.0303 L200,1169.0303 L220,1173.0303 L220,1186.1836 A0,0 0 0 0 220,1186.1836 L370,1186.1836 A0,0 0 0 0 370,1186.1836 L370,1161.877 L360,1151.877 L220,1151.877 A0,0 0 0 0 220,1151.877 " fill="#FFFFFF" style="stroke:#000000;stroke-width:1.0;"/><path d="M360,1151.877 L360,1161.877 L370,1161.877 L360,1151.877 " fill="#FFFFFF" style="stroke:#000000;stroke-width:1.0;"/><text fill="#000000" font-family="Verdana" font-size="10" lengthAdjust="spacing" textLength="114" x="226" y="1166.9307">Most comprehensive</text><text fill="#000000" font-family="Verdana" font-size="10" lengthAdjust="spacing" textLength="129" x="226" y="1179.084">post-coordinated query</text><rect fill="#E3F2FD" height="68.6133" rx="12.5" ry="12.5" style="stroke:#1976D2;stroke-width:1.0;" width="184" x="16" y="1134.7236"/><text fill="#000000" font-family="Verdana" font-size="10" lengthAdjust="spacing" textLength="107" x="26" y="1154.7773">Observable entity :</text><text fill="#000000" font-family="Verdana" font-size="10" lengthAdjust="spacing" textLength="164" x="26" y="1166.9307">Component = [COMPONENT],</text><text fill="#000000" font-family="Verdana" font-size="10" lengthAdjust="spacing" textLength="162" x="26" y="1179.084">Property = &lt;&lt; Measurement,</text><text fill="#000000" font-family="Verdana" font-size="10" lengthAdjust="spacing" textLength="126" x="26" y="1191.2373">Direct site = &lt;&lt; [SITE]</text><rect fill="#E3F2FD" height="32.1533" rx="12.5" ry="12.5" style="stroke:#1976D2;stroke-width:1.0;" width="79" x="400" y="1102.5703"/><text fill="#000000" font-family="Verdana" font-size="10" lengthAdjust="spacing" textLength="59" x="410" y="1122.624">Skip Exp 5</text><polygon fill="#E3F2FD" points="273.75,1221.3369,285.75,1233.3369,273.75,1245.3369,261.75,1233.3369,273.75,1221.3369" style="stroke:#1976D2;stroke-width:1.0;"/><path d="M802.75,492.4238 L802.75,505.5771 L782.75,509.5771 L802.75,513.5771 L802.75,526.7305 A0,0 0 0 0 802.75,526.7305 L1004.75,526.7305 A0,0 0 0 0 1004.75,526.7305 L1004.75,502.4238 L994.75,492.4238 L802.75,492.4238 A0,0 0 0 0 802.75,492.4238 " fill="#FFFFFF" style="stroke:#000000;stroke-width:1.0;"/><path d="M994.75,492.4238 L994.75,502.4238 L1004.75,502.4238 L994.75,492.4238 " fill="#FFFFFF" style="stroke:#000000;stroke-width:1.0;"/><text fill="#000000" font-family="Verdana" font-size="10" lengthAdjust="spacing" textLength="181" x="808.75" y="507.4775">Special cases: MCV, MCH, MCHC</text><text fill="#000000" font-family="Verdana" font-size="10" lengthAdjust="spacing" textLength="136" x="808.75" y="519.6309">use "Inheres in" instead</text><rect fill="#E3F2FD" height="32.1533" rx="12.5" ry="12.5" style="stroke:#1976D2;stroke-width:1.0;" width="187" x="595.75" y="493.5005"/><text fill="#000000" font-family="Verdana" font-size="10" lengthAdjust="spacing" textLength="167" x="605.75" y="513.5542">Skip Component experiments</text><polygon fill="#E3F2FD" points="481.5,1251.3369,493.5,1263.3369,481.5,1275.3369,469.5,1263.3369,481.5,1251.3369" style="stroke:#1976D2;stroke-width:1.0;"/><rect fill="#E3F2FD" height="44.3066" rx="12.5" ry="12.5" style="stroke:#1976D2;stroke-width:1.0;" width="132" x="415.5" y="1295.3369"/><text fill="#000000" font-family="Verdana" font-size="10" lengthAdjust="spacing" textLength="112" x="425.5" y="1315.3906">Execute ECL queries</text><text fill="#000000" font-family="Verdana" font-size="10" lengthAdjust="spacing" textLength="80" x="425.5" y="1327.5439">on OntoServer</text><rect fill="#E3F2FD" height="32.1533" rx="12.5" ry="12.5" style="stroke:#1976D2;stroke-width:1.0;" width="183" x="390" y="1359.6436"/><text fill="#000000" font-family="Verdana" font-size="10" lengthAdjust="spacing" textLength="163" x="400" y="1379.6973">Map SNOMED to LOINC codes</text><rect fill="#E3F2FD" height="32.1533" rx="12.5" ry="12.5" style="stroke:#1976D2;stroke-width:1.0;" width="148" x="407.5" y="1411.7969"/><text fill="#000000" font-family="Verdana" font-size="10" lengthAdjust="spacing" textLength="128" x="417.5" y="1431.8506">Extract specimen types</text><rect fill="#E3F2FD" height="32.1533" rx="12.5" ry="12.5" style="stroke:#1976D2;stroke-width:1.0;" width="162" x="400.5" y="1463.9502"/><text fill="#000000" font-family="Verdana" font-size="10" lengthAdjust="spacing" textLength="142" x="410.5" y="1484.0039">Load Interpolar reference</text><path d="M617.5,1506.1035 L617.5,1531.4102 L597.5,1535.4102 L617.5,1539.4102 L617.5,1564.7168 A0,0 0 0 0 617.5,1564.7168 L792.5,1564.7168 A0,0 0 0 0 792.5,1564.7168 L792.5,1516.1035 L782.5,1506.1035 L617.5,1506.1035 A0,0 0 0 0 617.5,1506.1035 " fill="#FFFFFF" style="stroke:#000000;stroke-width:1.0;"/><path d="M782.5,1506.1035 L782.5,1516.1035 L792.5,1516.1035 L782.5,1506.1035 " fill="#FFFFFF" style="stroke:#000000;stroke-width:1.0;"/><text fill="#000000" font-family="Verdana" font-size="10" font-weight="bold" lengthAdjust="spacing" textLength="45" x="623.5" y="1521.1572">Metrics:</text><text fill="#000000" font-family="Verdana" font-size="10" lengthAdjust="spacing" textLength="138" x="623.5" y="1533.3105">&#8226; Recall = TP / (TP + FN)</text><text fill="#000000" font-family="Verdana" font-size="10" lengthAdjust="spacing" textLength="154" x="623.5" y="1545.4639">&#8226; Precision = TP / (TP + FP)</text><text fill="#000000" font-family="Verdana" font-size="10" lengthAdjust="spacing" textLength="125" x="623.5" y="1557.6172">&#8226; F1 = harmonic mean</text><rect fill="#E3F2FD" height="32.1533" rx="12.5" ry="12.5" style="stroke:#1976D2;stroke-width:1.0;" width="232" x="365.5" y="1519.3335"/><text fill="#000000" font-family="Verdana" font-size="10" lengthAdjust="spacing" textLength="212" x="375.5" y="1539.3872">Calculate metrics for each experiment</text><rect fill="#E3F2FD" height="32.1533" rx="12.5" ry="12.5" style="stroke:#1976D2;stroke-width:1.0;" width="173" x="395" y="1584.7168"/><text fill="#000000" font-family="Verdana" font-size="10" lengthAdjust="spacing" textLength="153" x="405" y="1604.7705">Fetch LOINC display names</text><rect fill="#E3F2FD" height="32.1533" rx="12.5" ry="12.5" style="stroke:#1976D2;stroke-width:1.0;" width="169" x="397" y="1636.8701"/><text fill="#000000" font-family="Verdana" font-size="10" lengthAdjust="spacing" textLength="149" x="407" y="1656.9238">Generate HTML Dashboard</text><rect fill="#E3F2FD" height="32.1533" rx="12.5" ry="12.5" style="stroke:#1976D2;stroke-width:1.0;" width="228" x="367.5" y="1689.0234"/><text fill="#000000" font-family="Verdana" font-size="10" lengthAdjust="spacing" textLength="208" x="377.5" y="1709.0771">Save to output/decision_dashboards/</text><ellipse cx="481.5" cy="1752.1768" fill="none" rx="11" ry="11" style="stroke:#000000;stroke-width:1.0;"/><ellipse cx="481.5" cy="1752.1768" fill="#FFFFFF" rx="6" ry="6" style="stroke:#000000;stroke-width:1.0;"/><line style="stroke:#333333;stroke-width:1.0;" x1="481.5" x2="481.5" y1="72.7373" y2="92.7373"/><polygon fill="#333333" points="477.5,82.7373,481.5,92.7373,485.5,82.7373,481.5,86.7373" style="stroke:#333333;stroke-width:1.0;"/><line style="stroke:#333333;stroke-width:1.0;" x1="481.5" x2="481.5" y1="124.8906" y2="144.8906"/><polygon fill="#333333" points="477.5,134.8906,481.5,144.8906,485.5,134.8906,481.5,138.8906" style="stroke:#333333;stroke-width:1.0;"/><line style="stroke:#333333;stroke-width:1.0;" x1="481.5" x2="481.5" y1="177.0439" y2="197.0439"/><polygon fill="#333333" points="477.5,187.0439,481.5,197.0439,485.5,187.0439,481.5,191.0439" style="stroke:#333333;stroke-width:1.0;"/><line style="stroke:#333333;stroke-width:1.0;" x1="481.5" x2="481.5" y1="229.1973" y2="252.4272"/><polygon fill="#333333" points="477.5,242.4272,481.5,252.4272,485.5,242.4272,481.5,246.4272" style="stroke:#333333;stroke-width:1.0;"/><line style="stroke:#333333;stroke-width:1.0;" x1="481.5" x2="481.5" y1="284.5806" y2="317.8105"/><polygon fill="#333333" points="477.5,307.8105,481.5,317.8105,485.5,307.8105,481.5,311.8105" style="stroke:#333333;stroke-width:1.0;"/><line style="stroke:#333333;stroke-width:1.0;" x1="481.5" x2="481.5" y1="349.9639" y2="393.1938"/><polygon fill="#333333" points="477.5,383.1938,481.5,393.1938,485.5,383.1938,481.5,387.1938" style="stroke:#333333;stroke-width:1.0;"/><line style="stroke:#333333;stroke-width:1.0;" x1="273.75" x2="273.75" y1="568.8838" y2="623.0371"/><polygon fill="#333333" points="269.75,613.0371,273.75,623.0371,277.75,613.0371,273.75,617.0371" style="stroke:#333333;stroke-width:1.0;"/><line style="stroke:#333333;stroke-width:1.0;" x1="217.25" x2="193" y1="711.3438" y2="711.3438"/><line style="stroke:#333333;stroke-width:1.0;" x1="193" x2="193" y1="711.3438" y2="765.4971"/><polygon fill="#333333" points="189,755.4971,193,765.4971,197,755.4971,193,759.4971" style="stroke:#333333;stroke-width:1.0;"/><line style="stroke:#333333;stroke-width:1.0;" x1="330.25" x2="354.5" y1="711.3438" y2="711.3438"/><line style="stroke:#333333;stroke-width:1.0;" x1="354.5" x2="354.5" y1="711.3438" y2="733.3438"/><polygon fill="#333333" points="350.5,723.3438,354.5,733.3438,358.5,723.3438,354.5,727.3438" style="stroke:#333333;stroke-width:1.0;"/><line style="stroke:#333333;stroke-width:1.0;" x1="193" x2="193" y1="821.957" y2="851.957"/><line style="stroke:#333333;stroke-width:1.0;" x1="193" x2="261.75" y1="851.957" y2="851.957"/><polygon fill="#333333" points="251.75,847.957,261.75,851.957,251.75,855.957,255.75,851.957" style="stroke:#333333;stroke-width:1.0;"/><line style="stroke:#333333;stroke-width:1.0;" x1="354.5" x2="354.5" y1="765.4971" y2="851.957"/><line style="stroke:#333333;stroke-width:1.0;" x1="354.5" x2="285.75" y1="851.957" y2="851.957"/><polygon fill="#333333" points="295.75,847.957,285.75,851.957,295.75,855.957,291.75,851.957" style="stroke:#333333;stroke-width:1.0;"/><line style="stroke:#333333;stroke-width:1.0;" x1="273.75" x2="273.75" y1="667.3438" y2="699.3438"/><polygon fill="#333333" points="269.75,689.3438,273.75,699.3438,277.75,689.3438,273.75,693.3438" style="stroke:#333333;stroke-width:1.0;"/><line style="stroke:#333333;stroke-width:1.0;" x1="212.75" x2="193" y1="895.957" y2="895.957"/><line style="stroke:#333333;stroke-width:1.0;" x1="193" x2="193" y1="895.957" y2="950.1104"/><polygon fill="#333333" points="189,940.1104,193,950.1104,197,940.1104,193,944.1104" style="stroke:#333333;stroke-width:1.0;"/><line style="stroke:#333333;stroke-width:1.0;" x1="334.75" x2="354.5" y1="895.957" y2="895.957"/><line style="stroke:#333333;stroke-width:1.0;" x1="354.5" x2="354.5" y1="895.957" y2="917.957"/><polygon fill="#333333" points="350.5,907.957,354.5,917.957,358.5,907.957,354.5,911.957" style="stroke:#333333;stroke-width:1.0;"/><line style="stroke:#333333;stroke-width:1.0;" x1="193" x2="193" y1="1006.5703" y2="1036.5703"/><line style="stroke:#333333;stroke-width:1.0;" x1="193" x2="261.75" y1="1036.5703" y2="1036.5703"/><polygon fill="#333333" points="251.75,1032.5703,261.75,1036.5703,251.75,1040.5703,255.75,1036.5703" style="stroke:#333333;stroke-width:1.0;"/><line style="stroke:#333333;stroke-width:1.0;" x1="354.5" x2="354.5" y1="950.1104" y2="1036.5703"/><line style="stroke:#333333;stroke-width:1.0;" x1="354.5" x2="285.75" y1="1036.5703" y2="1036.5703"/><polygon fill="#333333" points="295.75,1032.5703,285.75,1036.5703,295.75,1040.5703,291.75,1036.5703" style="stroke:#333333;stroke-width:1.0;"/><line style="stroke:#333333;stroke-width:1.0;" x1="273.75" x2="273.75" y1="863.957" y2="883.957"/><polygon fill="#333333" points="269.75,873.957,273.75,883.957,277.75,873.957,273.75,877.957" style="stroke:#333333;stroke-width:1.0;"/><line style="stroke:#333333;stroke-width:1.0;" x1="218.25" x2="108" y1="1080.5703" y2="1080.5703"/><line style="stroke:#333333;stroke-width:1.0;" x1="108" x2="108" y1="1080.5703" y2="1134.7236"/><polygon fill="#333333" points="104,1124.7236,108,1134.7236,112,1124.7236,108,1128.7236" style="stroke:#333333;stroke-width:1.0;"/><line style="stroke:#333333;stroke-width:1.0;" x1="329.25" x2="439.5" y1="1080.5703" y2="1080.5703"/><line style="stroke:#333333;stroke-width:1.0;" x1="439.5" x2="439.5" y1="1080.5703" y2="1102.5703"/><polygon fill="#333333" points="435.5,1092.5703,439.5,1102.5703,443.5,1092.5703,439.5,1096.5703" style="stroke:#333333;stroke-width:1.0;"/><line style="stroke:#333333;stroke-width:1.0;" x1="108" x2="108" y1="1203.3369" y2="1233.3369"/><line style="stroke:#333333;stroke-width:1.0;" x1="108" x2="261.75" y1="1233.3369" y2="1233.3369"/><polygon fill="#333333" points="251.75,1229.3369,261.75,1233.3369,251.75,1237.3369,255.75,1233.3369" style="stroke:#333333;stroke-width:1.0;"/><line style="stroke:#333333;stroke-width:1.0;" x1="439.5" x2="439.5" y1="1134.7236" y2="1233.3369"/><line style="stroke:#333333;stroke-width:1.0;" x1="439.5" x2="285.75" y1="1233.3369" y2="1233.3369"/><polygon fill="#333333" points="295.75,1229.3369,285.75,1233.3369,295.75,1237.3369,291.75,1233.3369" style="stroke:#333333;stroke-width:1.0;"/><line style="stroke:#333333;stroke-width:1.0;" x1="273.75" x2="273.75" y1="1048.5703" y2="1068.5703"/><polygon fill="#333333" points="269.75,1058.5703,273.75,1068.5703,277.75,1058.5703,273.75,1062.5703" style="stroke:#333333;stroke-width:1.0;"/><line style="stroke:#333333;stroke-width:1.0;" x1="415.5" x2="273.75" y1="470.4238" y2="470.4238"/><line style="stroke:#333333;stroke-width:1.0;" x1="273.75" x2="273.75" y1="470.4238" y2="524.5771"/><polygon fill="#333333" points="269.75,514.5771,273.75,524.5771,277.75,514.5771,273.75,518.5771" style="stroke:#333333;stroke-width:1.0;"/><line style="stroke:#333333;stroke-width:1.0;" x1="547.5" x2="689.25" y1="470.4238" y2="470.4238"/><line style="stroke:#333333;stroke-width:1.0;" x1="689.25" x2="689.25" y1="470.4238" y2="493.5005"/><polygon fill="#333333" points="685.25,483.5005,689.25,493.5005,693.25,483.5005,689.25,487.5005" style="stroke:#333333;stroke-width:1.0;"/><line style="stroke:#333333;stroke-width:1.0;" x1="273.75" x2="273.75" y1="1245.3369" y2="1263.3369"/><line style="stroke:#333333;stroke-width:1.0;" x1="273.75" x2="469.5" y1="1263.3369" y2="1263.3369"/><polygon fill="#333333" points="459.5,1259.3369,469.5,1263.3369,459.5,1267.3369,463.5,1263.3369" style="stroke:#333333;stroke-width:1.0;"/><line style="stroke:#333333;stroke-width:1.0;" x1="689.25" x2="689.25" y1="525.6538" y2="1263.3369"/><line style="stroke:#333333;stroke-width:1.0;" x1="689.25" x2="493.5" y1="1263.3369" y2="1263.3369"/><polygon fill="#333333" points="503.5,1259.3369,493.5,1263.3369,503.5,1267.3369,499.5,1263.3369" style="stroke:#333333;stroke-width:1.0;"/><line style="stroke:#333333;stroke-width:1.0;" x1="481.5" x2="481.5" y1="425.3472" y2="458.4238"/><polygon fill="#333333" points="477.5,448.4238,481.5,458.4238,485.5,448.4238,481.5,452.4238" style="stroke:#333333;stroke-width:1.0;"/><line style="stroke:#333333;stroke-width:1.0;" x1="481.5" x2="481.5" y1="1275.3369" y2="1295.3369"/><polygon fill="#333333" points="477.5,1285.3369,481.5,1295.3369,485.5,1285.3369,481.5,1289.3369" style="stroke:#333333;stroke-width:1.0;"/><line style="stroke:#333333;stroke-width:1.0;" x1="481.5" x2="481.5" y1="1339.6436" y2="1359.6436"/><polygon fill="#333333" points="477.5,1349.6436,481.5,1359.6436,485.5,1349.6436,481.5,1353.6436" style="stroke:#333333;stroke-width:1.0;"/><line style="stroke:#333333;stroke-width:1.0;" x1="481.5" x2="481.5" y1="1391.7969" y2="1411.7969"/><polygon fill="#333333" points="477.5,1401.7969,481.5,1411.7969,485.5,1401.7969,481.5,1405.7969" style="stroke:#333333;stroke-width:1.0;"/><line style="stroke:#333333;stroke-width:1.0;" x1="481.5" x2="481.5" y1="1443.9502" y2="1463.9502"/><polygon fill="#333333" points="477.5,1453.9502,481.5,1463.9502,485.5,1453.9502,481.5,1457.9502" style="stroke:#333333;stroke-width:1.0;"/><line style="stroke:#333333;stroke-width:1.0;" x1="481.5" x2="481.5" y1="1496.1035" y2="1519.3335"/><polygon fill="#333333" points="477.5,1509.3335,481.5,1519.3335,485.5,1509.3335,481.5,1513.3335" style="stroke:#333333;stroke-width:1.0;"/><line style="stroke:#333333;stroke-width:1.0;" x1="481.5" x2="481.5" y1="1551.4868" y2="1584.7168"/><polygon fill="#333333" points="477.5,1574.7168,481.5,1584.7168,485.5,1574.7168,481.5,1578.7168" style="stroke:#333333;stroke-width:1.0;"/><line style="stroke:#333333;stroke-width:1.0;" x1="481.5" x2="481.5" y1="1616.8701" y2="1636.8701"/><polygon fill="#333333" points="477.5,1626.8701,481.5,1636.8701,485.5,1626.8701,481.5,1630.8701" style="stroke:#333333;stroke-width:1.0;"/><line style="stroke:#333333;stroke-width:1.0;" x1="481.5" x2="481.5" y1="1669.0234" y2="1689.0234"/><polygon fill="#333333" points="477.5,1679.0234,481.5,1689.0234,485.5,1679.0234,481.5,1683.0234" style="stroke:#333333;stroke-width:1.0;"/><line style="stroke:#333333;stroke-width:1.0;" x1="481.5" x2="481.5" y1="1721.1768" y2="1741.1768"/><polygon fill="#333333" points="477.5,1731.1768,481.5,1741.1768,485.5,1731.1768,481.5,1735.1768" style="stroke:#333333;stroke-width:1.0;"/><!--SRC=[hLRRRjj647tdLqoT5yc9OKfouePEK3YKr0YrBf3K5aLG62joP2vCxZAxIzbiOQ3Vqa_hbtIMf2ZASX8_n809WMTczvoPsJtymKIO8AGnuyBHjroaJB44LYoulL4o4w4lOwdWBk866tY8QvR5PYY5MV2_43fk0xnKIjwLUIzwnLyJ30pVS9D_UBJ3Yq5ls1tsdugKAaHLHNNUdh_fTnt7S1CZ3Fmh6Dod2hNcKi3FA50nOt_-BjNjEfPtiAQiFWQy2EWp7QqaKw7ZQCEKSHplLuqAKYKtF4GDCyKJfdAuceucFlWon0kAkP8iB5-TB2RJyQ0F2KjJBcwqHUTe5CSDGeNvKWIO6XZrBJguDue5PWjU6WfUPGPjgf06GV6Ro3W0nySz-0NpHeHtV4pl__ldNreoIQL0OQ3LFNlZlksvRhTTOJCbKrGcXrRltEqGuhfRgCyLqjQQUWUjS_UirprttH_R3eeGxDv4hofPNKga0j0-bXrrWQfiotP40BWUROKdWQHsS44f8TLL1xGMe_WZ-9iszTwzWq-bqcj_El47i-NrgF_d1K5xMW4-C8qn5mWdmEAOvgbUgO2ve9xiRnPn8gg2AAU0Mi23u_0rj7RrmNkkZVwf3JJN0bevwhP32O-qT3mOydjQj4ui-PE2wOe6OiDMD5tqciOFl0BORV4UFldJyMmw6KoMXRG3SK2Lj3qFwfo4cI2giDPasjJRBbxNYW0UdY3SzHe43ih-JDgsETzalajuUT0LuXwmr6HqtWXJV4DdRODVK63xKi_cKssnIOzazhoz_RVfMvLVqVd51hsgu9eAeRFvT3QOB_-eQl1W9ohMT4Q4B6bvYrkUGi7eeXmtljvgQXwgPyewsvUroBN1v7k8Qd8f-xiOBGVFa7Ls8EkIJc4FM7tvV5FKQm_ckAOZ71Q7-JltYBICaMaQDNiTFKll4yCCC9QwF8SAIOscSQsXbA2z6-PpXYgluCOqVxsIhnkLRCQK4SsBgN6t7b1Tf6HHB8Q0Agaz6Fk_lQB7n-BX5n4PBNqq4X7QmyV54VtJ5B6mUHjMDCXpCCYgEzsAugWTQjjK6BcWpg2onZHcwTQKZAmCBo33qqtNqfONaGQJfoLIUE5865IfZ9a2XMkYH8vdGP_5GHPREqciAGQwi5zaGTJGVsXyup9uvtTp3Amhl8Vb34wXHS-NC9pi76_hv_i1ist0i4D8n5GY1G-82XDDoniYtSMLu91h-lJ9GR2ab5VxuSVb-6htlM2X1IEFfrB9pAIPEGqh4jVXDaYVNjZl2faw_mC0]--></g></svg>